<svg xmlns="http://www.w3.org/2000/svg" xmlns:xlink="http://www.w3.org/1999/xlink" version="1.1" x="0px" y="0px" viewBox="0 0 100 125" style="enable-background:new 0 0 100 100;" xml:space="preserve"><g><path d="M40.9,64c1.5,0,2.7-0.9,3.2-2.3l3.1-8.6V18.9c0-3.5-2.8-6.3-6.3-6.3s-6.3,2.8-6.3,6.3v34.2l3.1,8.6   C38.2,63.1,39.5,64,40.9,64z M37.6,22.8h1.8v26.6l-1.8,0.9V22.8z M44.2,22.8v27.6l-1.8-0.9V22.8H44.2z M42.2,58.4   c-0.3-0.3-0.8-0.5-1.2-0.5s-0.9,0.2-1.2,0.5L38,53.6l3-1.6l3,1.6L42.2,58.4z M40.9,15.6c1.8,0,3.3,1.5,3.3,3.3v0.9h-6.6v-0.9   C37.6,17.1,39.1,15.6,40.9,15.6z"/><path d="M53.5,22.9c0,0.1,0,0.2,0,0.3v5.6c0,0.6,0.2,1.2,0.6,1.7c-0.8,3.6-2.6,16,2.7,31.6c0.4,1,1.4,1.7,2.6,1.8c0,0,0,0,0.1,0   c1.3,0,2.3-0.7,2.7-1.7c5.8-15.1,3.6-28,2.7-31.7c0.4-0.4,0.6-1,0.6-1.6v-5.6c0-0.2,0-0.4-0.1-0.6c2.1-1.6,4.4-4.9,3-9.8   C66.8,6.5,61.7,1.6,58.1,1c-0.9-0.2-1.8,0.3-2.2,1c-0.5,0.8-0.4,1.7,0.2,2.4c0.4,0.5,0.8,1.5,0.6,2.4c-0.1,0.8-0.6,1.5-1.3,2   L55.3,9c-3.3,2.6-5,5.7-4.8,8.8C50.7,19.8,51.7,21.6,53.5,22.9z M62.6,23.7v4.6h-6.2v-4.6H62.6z M59.5,60.9   c-4.8-14.3-3.2-26-2.5-29.5h5.1C62.8,34.9,64.7,47,59.5,60.9z M57.1,11.4c1.5-1,2.4-2.4,2.6-4c0.1-0.8,0.1-1.7-0.1-2.5   c2.3,1.5,5,4.8,6.1,8.8c1.3,4.6-1.9,6.7-2.7,7.1h-7c-0.1,0-0.2,0-0.3,0c-1.3-0.8-2.1-1.9-2.2-3.3C53.3,15.5,54.6,13.3,57.1,11.4z"/><path d="M61.2,19.9c0.2,0,0.4,0,0.6-0.1c1.3-0.5,2.2-1.5,2.6-2.7c0.9-3-1.4-6.7-1.7-7.1c-0.4-0.7-1.4-0.9-2.1-0.4   c-0.7,0.4-0.9,1.4-0.4,2.1c0.6,0.9,1.7,3.3,1.3,4.6c-0.1,0.3-0.3,0.6-0.9,0.8c-0.8,0.3-1.1,1.2-0.8,2C60,19.6,60.6,19.9,61.2,19.9z   "/><path d="M81.8,24.5H71.4c-0.8,0-1.5,0.7-1.5,1.5s0.7,1.5,1.5,1.5h10.4c1.6,0,2.9,1.3,2.9,2.9v1.9H71.3c-0.8,0-1.5,0.7-1.5,1.5   s0.7,1.5,1.5,1.5h13.3v34.5H15.3V35.3h13.1c0.8,0,1.5-0.7,1.5-1.5s-0.7-1.5-1.5-1.5H15.3v-1.9c0-1.6,1.3-2.9,2.9-2.9h10.3   c0.8,0,1.5-0.7,1.5-1.5s-0.7-1.5-1.5-1.5H18.2c-3.2,0-5.9,2.6-5.9,5.9v43.8c0,3.2,2.6,5.9,5.9,5.9h21.7v3.6c0,4.4-2.3,8.4-6.1,10.6   c-1,0.6-1.5,1.8-1.2,2.9c0.3,1.1,1.4,1.9,2.5,1.9h29.9c1.1,0,2.2-0.7,2.5-1.9c0.3-1.1-0.2-2.3-1.2-2.9C62.4,92.1,60,88,60,83.7V80   h21.8c3.2,0,5.9-2.6,5.9-5.9V30.4C87.7,27.2,85.1,24.5,81.8,24.5z M63.3,95.9H36.9C40.7,93,43,88.4,43,83.5V80h14.1v3.5   C57.1,88.4,59.4,93,63.3,95.9z M81.8,77H18.2c-1.6,0-2.9-1.3-2.9-2.9v-1.4h69.4v1.4C84.7,75.7,83.4,77,81.8,77z"/></g><text x="0" y="115" fill="#000000" font-size="5px" font-weight="bold" font-family="'Helvetica Neue', Helvetica, Arial-Unicode, Arial, Sans-serif">Created by Tomasz Pasternak</text><text x="0" y="120" fill="#000000" font-size="5px" font-weight="bold" font-family="'Helvetica Neue', Helvetica, Arial-Unicode, Arial, Sans-serif">from the Noun Project</text></svg>